<?xml version="1.0" encoding="UTF-8"?>
<svg version="1.1" xmlns="http://www.w3.org/2000/svg" width="1024" height="1024">
<path d="M0 0 C337.92 0 675.84 0 1024 0 C1024 337.92 1024 675.84 1024 1024 C686.08 1024 348.16 1024 0 1024 C0 686.08 0 348.16 0 0 Z " fill="#FAFAFA" transform="translate(0,0)"/>
<path d="M0 0 C0.96486328 0.41813965 0.96486328 0.41813965 1.94921875 0.84472656 C11.95149709 5.3517412 19.97489389 11.60255582 28 19 C29.01320312 19.87398438 29.01320312 19.87398438 30.046875 20.765625 C38.12164363 28.09958917 45.04779464 39.49180052 48 50 C48 50.99 48 51.98 48 53 C49.60488281 52.51853516 49.60488281 52.51853516 51.2421875 52.02734375 C65.03050705 48.60602226 82.43442045 49.10812171 95 56 C110.51927478 65.36749018 117.36669396 78.16635606 123 95 C124.051875 94.401875 125.10375 93.80375 126.1875 93.1875 C141.81051758 85.4036916 156.05253137 87.93975748 171.90234375 92.91015625 C178.31438692 95.25009618 183.5811734 98.89552709 189 103 C186.10326167 106.08362468 183.15460632 108.67131109 179.75 111.1875 C173.39299929 116.10259823 167.57697401 121.56426793 164.03125 128.87109375 C159.02293464 139.05165077 159.02293464 139.05165077 155.12207031 140.88037109 C150.81967818 142.0553094 146.42980293 142.35866556 142.00048828 142.74121094 C131.79016965 144.06204786 121.3502423 151.91873345 114.8125 159.5 C106.2949723 170.92005236 103.9236728 180.57245398 102 195 C67.68 195 33.36 195 -2 195 C-2.99 190.05 -3.98 185.1 -5 180 C-10.9247175 165.18820624 -22.23032354 155.58902658 -36.6015625 149.32421875 C-43.70631695 146.55581443 -50.27883515 144.72223931 -57.94921875 145.28125 C-68.80545179 146.03664989 -68.80545179 146.03664989 -73 145 C-76.317722 142.09367553 -78.03900585 139.30179484 -80.08984375 135.46484375 C-85.63208532 125.4117389 -95.80368251 120.30978368 -106 116 C-106.84691406 115.63777344 -107.69382812 115.27554688 -108.56640625 114.90234375 C-123.25381084 109.83365677 -140.99370151 111.90821949 -155 118 C-161.52186563 121.25221374 -167.27187272 125.52540894 -173 130 C-177.51044853 126.56200169 -181.36650135 123.36577144 -182.87158203 117.74511719 C-183.17311128 114.08492965 -183.17995975 110.54513569 -183.0625 106.875 C-183.08892578 105.63878906 -183.11535156 104.40257812 -183.14257812 103.12890625 C-183.03476371 94.40062605 -183.03476371 94.40062605 -180.33520508 90.74658203 C-178.31192652 88.97127189 -176.24344135 87.48298401 -174 86 C-172.60974609 84.73542969 -172.60974609 84.73542969 -171.19140625 83.4453125 C-165.522659 78.44199026 -159.85510051 74.53258991 -153.1875 71 C-152.48246338 70.62633301 -151.77742676 70.25266602 -151.05102539 69.86767578 C-143.17546546 65.85421392 -136.33302627 64.71082888 -127.5625 64.875 C-126.64017578 64.88402344 -125.71785156 64.89304687 -124.76757812 64.90234375 C-122.51144191 64.9257234 -120.25586316 64.95849084 -118 65 C-117.76925781 64.05640625 -117.53851563 63.1128125 -117.30078125 62.140625 C-111.54026979 39.182762 -99.7130482 20.59394714 -79.29785156 7.97143555 C-73.12432661 4.33899884 -66.74406347 1.41962583 -60 -1 C-58.84886719 -1.41378906 -57.69773437 -1.82757813 -56.51171875 -2.25390625 C-38.59906491 -7.68255636 -17.26002284 -7.51329151 0 0 Z " fill="#2357B8" transform="translate(182,425)"/>
<path d="M0 0 C1.501073 0.01135986 1.501073 0.01135986 3.0324707 0.02294922 C21.6378356 0.43317453 37.4305793 7.42036403 50.75 20.4375 C59.71967375 30.6337958 65.91061866 43.18705375 68.75 56.4375 C69.71421875 56.08816406 70.6784375 55.73882813 71.671875 55.37890625 C72.94788003 54.91916914 74.22392374 54.45953937 75.5 54 C76.13421875 53.76990234 76.7684375 53.53980469 77.421875 53.30273438 C92.39941689 47.92018026 108.33820791 49.4950193 122.75 55.9375 C141.31360637 65.83809007 150.33567601 83.19452803 156.75 102.4375 C157.78898437 102.47488281 158.82796875 102.51226563 159.8984375 102.55078125 C174.93861401 103.20642963 186.4482084 106.17473753 197.1875 117.4609375 C200.08052289 121.12061145 201.94934923 125.15683206 203.75 129.4375 C204.07097656 130.18128906 204.39195312 130.92507813 204.72265625 131.69140625 C207.20229438 138.1384654 206.75 141.90696845 206.75 149.4375 C74.09 149.4375 -58.57 149.4375 -195.25 149.4375 C-195.25 137.6809545 -191.76292619 129.09953337 -185.25 119.4375 C-184.38375 118.1071875 -184.38375 118.1071875 -183.5 116.75 C-175.2212849 108.2413206 -163.86401152 102.68996224 -151.91796875 102.33984375 C-150.19513672 102.35724609 -150.19513672 102.35724609 -148.4375 102.375 C-147.27605469 102.38402344 -146.11460937 102.39304687 -144.91796875 102.40234375 C-144.03753906 102.41394531 -143.15710938 102.42554688 -142.25 102.4375 C-141.92 101.2 -141.59 99.9625 -141.25 98.6875 C-135.56558502 81.89742242 -121.35781788 69.63049512 -106.01953125 61.78515625 C-91.89480791 55.01257496 -79.68230444 52.1995258 -64.25 56.4375 C-64.03085937 55.42171875 -63.81171875 54.4059375 -63.5859375 53.359375 C-59.48545754 35.20073956 -51.256882 19.87975778 -35.25 9.4375 C-23.97234206 3.2579614 -12.86872093 -0.13810228 0 0 Z " fill="#2357B8" transform="translate(487.25,470.5625)"/>
<path d="M0 0 C13.15556938 11.11580116 24.86333731 28.50740116 26.609375 46.11328125 C26.625 48.0625 26.625 48.0625 26.375 50.75 C27.27089844 50.42644531 28.16679688 50.10289062 29.08984375 49.76953125 C34.61323236 48.2011274 40.23834173 48.40896752 45.9375 48.4375 C47.10265137 48.44313965 48.26780273 48.4487793 49.46826172 48.45458984 C65.91997219 48.68662765 80.78456236 53.18458789 95.375 60.75 C95.375 62.4 95.375 64.05 95.375 65.75 C94.43140625 66.02972656 93.4878125 66.30945313 92.515625 66.59765625 C79.42566615 70.62164465 68.36062008 76.04334382 59.375 86.75 C58.53388672 88.35101562 58.53388672 88.35101562 57.67578125 89.984375 C55.375 92.75 55.375 92.75 53.52099609 93.27319336 C51.1860091 93.46299332 48.90478449 93.47665391 46.5625 93.4375 C44.83966157 93.47399943 43.11697288 93.51835763 41.39453125 93.5703125 C40.54197754 93.59383789 39.68942383 93.61736328 38.81103516 93.64160156 C19.7731128 94.48874904 4.10149474 103.05599396 -8.625 116.75 C-18.83845463 128.04292544 -23.1373857 141.87385697 -24.625 156.75 C-51.685 156.75 -78.745 156.75 -106.625 156.75 C-106.955 152.46 -107.285 148.17 -107.625 143.75 C-111.72097001 128.73144328 -118.98127136 116.74611965 -132.625 108.75 C-141.49844201 104.3246552 -149.7588597 102.91270996 -159.625 102.75 C-159.82544922 102.23203857 -160.02589844 101.71407715 -160.23242188 101.18041992 C-165.22324978 88.43315512 -170.23205881 77.10364707 -180.625 67.75 C-181.429375 66.95722656 -181.429375 66.95722656 -182.25 66.1484375 C-188.00749266 60.70280903 -194.59421766 57.27610882 -201.625 53.75 C-200.07667097 45.15677388 -191.39925158 37.64861196 -184.625 32.75 C-170.90295361 24.81569971 -157.65743997 20.58936938 -141.625 21.75 C-138.22265625 22.76171875 -138.22265625 22.76171875 -135.625 23.75 C-135.09390625 23.01394531 -134.5628125 22.27789062 -134.015625 21.51953125 C-133.30921875 20.54371094 -132.6028125 19.56789063 -131.875 18.5625 C-130.83085938 17.11810547 -130.83085938 17.11810547 -129.765625 15.64453125 C-125.63829305 10.06359517 -125.63829305 10.06359517 -123.625 7.75 C-122.965 7.75 -122.305 7.75 -121.625 7.75 C-121.625 7.09 -121.625 6.43 -121.625 5.75 C-119.58122782 3.92693103 -117.53785416 2.23456127 -115.375 0.5625 C-114.73820313 0.06927246 -114.10140625 -0.42395508 -113.4453125 -0.93212891 C-103.5666369 -8.45674759 -93.53915077 -13.65600756 -81.625 -17.25 C-80.04525391 -17.73146484 -80.04525391 -17.73146484 -78.43359375 -18.22265625 C-50.22226459 -25.52161626 -22.56563566 -17.57546032 0 0 Z " fill="#2357B8" transform="translate(808.625,463.25)"/>
<path d="M0 0 C0 54.45 0 108.9 0 165 C-76.56 165 -153.12 165 -232 165 C-232 149.36007981 -225.38443919 136.91034487 -214.8203125 125.68359375 C-205.2336823 116.39556351 -192.4924166 109.81491808 -179 109 C-177.08254823 109.04602702 -175.1656513 109.11987079 -173.25 109.21484375 C-162.63777645 110.37048199 -162.63777645 110.37048199 -153.21484375 106.80859375 C-151.50199276 103.9408364 -150.25116985 101.09235624 -149 98 C-141.78905179 88.2549718 -130.58746748 83.58345391 -119.03125 81.41015625 C-116 81 -116 81 -112 81 C-112.04640625 79.70707031 -112.0928125 78.41414062 -112.140625 77.08203125 C-112.70116199 54.97172429 -105.34659889 36.6628279 -90.3984375 20.12109375 C-68.34411523 -2.70978917 -30.17963458 -15.08981729 0 0 Z " fill="#2357B8" transform="translate(1024,455)"/>
<path d="M0 0 C3.37630766 2.86459945 5.84063317 6.19190465 8.35546875 9.8125 C8.79697266 10.42416016 9.23847656 11.03582031 9.69335938 11.66601562 C11.811945 14.66707489 13.30233733 17.16011021 14.04296875 20.75 C15.54150391 20.51023437 15.54150391 20.51023437 17.0703125 20.265625 C34.65684871 17.77533968 51.26861526 20.7865125 66.04296875 30.75 C73.87825595 36.77197788 80.39889473 45.79214258 82.04296875 55.75 C82.04296875 58.06 82.04296875 60.37 82.04296875 62.75 C25.28296875 62.75 -31.47703125 62.75 -89.95703125 62.75 C-89.95703125 42.62 -89.95703125 22.49 -89.95703125 1.75 C-86.19504281 3.63099422 -82.59784257 5.64953193 -78.95703125 7.75 C-78.54195312 7.193125 -78.126875 6.63625 -77.69921875 6.0625 C-58.20473957 -18.08129012 -23.41461447 -17.81613994 0 0 Z " fill="#2356B8" transform="translate(89.95703125,557.25)"/>
<path d="M0 0 C0.66 0.33 1.32 0.66 2 1 C0.99088542 2.72526042 -0.01822917 4.45052083 -1.02734375 6.17578125 C-2.13901247 8.13819555 -2.13901247 8.13819555 -3 11 C-3.66 11 -4.32 11 -5 11 C-5.66 12.98 -6.32 14.96 -7 17 C-8 14 -8 14 -7.109375 11.66015625 C-6.66078125 10.80292969 -6.2121875 9.94570313 -5.75 9.0625 C-5.31171875 8.20785156 -4.8734375 7.35320313 -4.421875 6.47265625 C-3.09274283 4.16128079 -1.64953386 2.09102675 0 0 Z " fill="#143EAE" transform="translate(354,555)"/>
<path d="M0 0 C-1.49097658 3.7952131 -3.75700849 5.61042731 -7 8 C-7 4 -7 4 -5.1875 1.75 C-3 0 -3 0 0 0 Z " fill="#1F4DB3" transform="translate(363,548)"/>
<path d="M0 0 C0.66 0.33 1.32 0.66 2 1 C1.38461538 7.52307692 1.38461538 7.52307692 -0.5625 9.9375 C-1.036875 10.288125 -1.51125 10.63875 -2 11 C-2.28571429 3.57142857 -2.28571429 3.57142857 0 0 Z " fill="#1F4BB2" transform="translate(427,513)"/>
</svg>
