<?xml version="1.0" encoding="UTF-8"?>
<svg version="1.1" xmlns="http://www.w3.org/2000/svg" width="1024" height="1024">
<path d="M0 0 C19.64058746 16.79918268 32.42856702 38.31905705 40.4765625 62.72265625 C41.34152344 62.50609375 42.20648437 62.28953125 43.09765625 62.06640625 C51.87914208 60.12495186 60.29061162 59.42086312 69.2890625 59.41015625 C70.84355103 59.40242188 70.84355103 59.40242188 72.42944336 59.39453125 C82.38240243 59.48327669 91.73086235 61.1414764 101.1640625 64.28515625 C101.92299805 64.53765137 102.68193359 64.79014648 103.46386719 65.05029297 C115.71085575 69.34360216 128.49210034 76.31036255 137.4765625 85.72265625 C138.03859375 86.21765625 138.600625 86.71265625 139.1796875 87.22265625 C155.99252633 102.53190787 164.02107901 124.73206217 165.72265625 146.93359375 C165.90530576 154.94868382 164.67040286 162.81891023 163.4765625 170.72265625 C163.14193687 173.0558046 162.80822251 175.38908448 162.4765625 177.72265625 C161.8165625 177.72265625 161.1565625 177.72265625 160.4765625 177.72265625 C160.33347656 178.74359375 160.33347656 178.74359375 160.1875 179.78515625 C156.2552956 196.03250629 141.9988929 211.69090694 128.4765625 220.72265625 C115.83845282 228.42995068 101.39797894 233.82566151 86.46582508 233.85967064 C84.68372472 233.86728245 84.68372472 233.86728245 82.86562234 233.87504804 C81.5692463 233.8755458 80.27287025 233.87604356 78.93721008 233.8765564 C77.53901476 233.88057464 76.14082058 233.88501347 74.7426278 233.88983595 C70.9049297 233.90176754 67.06724416 233.90744199 63.22953117 233.91201711 C59.08812191 233.91798642 54.94672755 233.92959315 50.80532837 233.94030762 C40.80394632 233.96480473 30.80255935 233.97945664 20.80115655 233.99236768 C17.9736639 233.99608216 15.14617174 234.0000552 12.31867957 234.00412035 C-5.25901916 234.02936399 -22.83671872 234.05140598 -40.41443157 234.0638485 C-44.48405142 234.06677796 -48.55367123 234.06973965 -52.62329102 234.07275391 C-53.63471375 234.07349996 -54.64613648 234.07424601 -55.68820838 234.07501467 C-72.05152275 234.08765266 -88.41472809 234.12085602 -104.77799156 234.16255574 C-121.59850854 234.20506724 -138.41896986 234.22855431 -155.2395404 234.23376906 C-164.67515082 234.23717318 -174.11059097 234.24880967 -183.5461483 234.2818718 C-191.58678192 234.31000065 -199.62721034 234.32081583 -207.66788932 234.30967633 C-211.76351282 234.30452191 -215.85870751 234.30716404 -219.9542675 234.33214188 C-247.07867754 234.48839967 -270.57717748 232.14167047 -291.6796875 213.53515625 C-308.8093915 196.59369075 -318.08638593 175.47175552 -318.62109375 151.37890625 C-318.51257594 129.10916464 -310.44085137 109.19192166 -295.0546875 93.1484375 C-278.47595511 77.22797831 -257.73124661 70.26319037 -234.97216797 70.42871094 C-227.3917974 70.59569881 -219.99615643 71.45455849 -212.5234375 72.72265625 C-212.35328125 72.14 -212.183125 71.55734375 -212.0078125 70.95703125 C-200.80995396 33.07491407 -179.63613312 2.24785446 -144.3359375 -16.96484375 C-135.72848827 -21.4884241 -126.87816785 -24.67940892 -117.5234375 -27.27734375 C-115.75806641 -27.7878125 -115.75806641 -27.7878125 -113.95703125 -28.30859375 C-74.13321149 -37.75090447 -30.93948606 -25.94156908 0 0 Z M-150.75390625 15.27734375 C-152.5234375 16.72265625 -152.5234375 16.72265625 -155.5234375 18.72265625 C-155.5234375 19.38265625 -155.5234375 20.04265625 -155.5234375 20.72265625 C-156.38582031 21.08810547 -156.38582031 21.08810547 -157.265625 21.4609375 C-173.04668983 30.27976785 -183.08800969 54.57535818 -187.7734375 71.09765625 C-189.39527411 77.57810126 -190.50992158 84.11351087 -191.39746094 90.73388672 C-192.44868836 97.98088686 -192.44868836 97.98088686 -195.5234375 100.72265625 C-201.81075688 102.291602 -207.48647321 100.2295535 -213.1875 97.67578125 C-216.31306061 96.40046889 -219.18223001 96.07810386 -222.5234375 95.72265625 C-222.8534375 95.39265625 -223.1834375 95.06265625 -223.5234375 94.72265625 C-239.25431045 91.57648166 -256.99359158 93.89549182 -270.5234375 102.72265625 C-283.02180185 112.23307344 -291.67441975 123.90517617 -294.8984375 139.41015625 C-297.48194779 158.62344639 -292.53858028 175.21141376 -281.03515625 190.73046875 C-279.62745317 192.56781264 -279.62745317 192.56781264 -277.5234375 194.72265625 C-276.8634375 194.72265625 -276.2034375 194.72265625 -275.5234375 194.72265625 C-275.5234375 195.38265625 -275.5234375 196.04265625 -275.5234375 196.72265625 C-262.0947141 208.51735357 -246.15862535 211.03932682 -228.925354 210.97662354 C-227.58186416 210.97893269 -226.23837557 210.98211225 -224.89488959 210.98607802 C-221.23175366 210.99437262 -217.56872287 210.99032519 -213.90558672 210.98410559 C-209.94362228 210.97955992 -205.98167527 210.98657542 -202.01971436 210.99206543 C-194.26840787 211.00093957 -186.5171402 210.99904597 -178.76583222 210.99324015 C-172.46139539 210.98871456 -166.15696942 210.98811464 -159.85253143 210.99028778 C-158.50411164 210.99074748 -158.50411164 210.99074748 -157.12845103 210.99121647 C-155.30193187 210.99185595 -153.47541272 210.99250438 -151.64889356 210.99316165 C-134.53650736 210.99885949 -117.42414261 210.99231631 -100.31175992 210.98156092 C-85.65216513 210.97263201 -70.99260203 210.97417306 -56.33300781 210.98339844 C-39.28604478 210.99412127 -22.23910055 210.9983038 -5.19213462 210.99217391 C-3.37129196 210.99153686 -1.55044929 210.99090811 0.27039337 210.99028778 C1.16613777 210.98997923 2.06188217 210.98967068 2.98477034 210.98935278 C9.27417107 210.98763141 15.56355981 210.99052899 21.85295868 210.99524689 C29.52866727 211.00087839 37.20433499 210.99929207 44.88003895 210.9886854 C48.79076109 210.98345814 52.70141532 210.9813211 56.61213684 210.9879837 C60.2023505 210.99400732 63.79243422 210.99056414 67.38263634 210.9800286 C69.27482129 210.9767875 71.16701549 210.98320791 73.05919051 210.99014306 C92.67786359 210.9018339 110.72805836 207.68355019 125.2265625 193.47265625 C136.19763845 182.22284747 141.975507 167.8711859 142.5390625 152.1796875 C142.18540142 132.61780925 135.50496003 117.51163292 122.32421875 103.421875 C106.84580649 88.57758764 85.14935539 82.0988872 64.078125 82.47265625 C53.66693943 83.19534158 44.24373848 85.87160646 34.6953125 89.9296875 C30.4985422 90.96360057 28.36817604 90.58970417 24.4765625 88.72265625 C23.01619788 86.20599303 22.23935095 84.45010292 21.4765625 81.72265625 C21.2811084 81.05218262 21.0856543 80.38170898 20.88427734 79.69091797 C20.28054083 77.52100305 19.72153184 75.34237861 19.1640625 73.16015625 C11.80645349 45.81909071 -5.46748829 22.744889 -29.5234375 7.72265625 C-67.48240259 -13.70214248 -116.44134441 -12.93374915 -150.75390625 15.27734375 Z " fill="#3664F6" transform="translate(588.5234375,415.27734375)"/>
<path d="M0 0 C3.48259167 2.32172778 4.04410152 3.81048172 5.75 7.5625 C10.27460252 17.15444558 10.27460252 17.15444558 18 24 C18 24.66 18 25.32 18 26 C18.57363281 26.28101563 19.14726562 26.56203125 19.73828125 26.8515625 C21.92966897 27.96428787 24.0543609 29.15495323 26.1875 30.375 C39.16699253 37.55289228 50.44499477 39.30720565 65.26847839 39.24050903 C66.68452971 39.24138283 68.10058071 39.243137 69.51662999 39.24568737 C73.37975594 39.25013077 77.24276967 39.24219895 81.10588133 39.23213124 C85.28227759 39.22345536 89.45866806 39.22641982 93.6350708 39.22793579 C100.86167576 39.22898203 108.08824447 39.22273274 115.31484032 39.21146011 C125.76314603 39.19517266 136.2114343 39.18999379 146.65975133 39.18748413 C163.61342813 39.18311211 180.56708563 39.16981642 197.52075195 39.15087891 C213.98494368 39.13250733 230.44913016 39.11835708 246.91333008 39.10986328 C247.92900561 39.10933783 248.94468115 39.10881239 249.99113473 39.10827102 C255.08672601 39.10566085 260.18231733 39.10313346 265.27790868 39.10064721 C307.51861921 39.07993008 349.7593085 39.04471801 392 39 C384.3055145 43.1402623 375.0607998 42.14630804 366.55940247 42.14044189 C365.19645326 42.14302907 363.83350481 42.14604321 362.47055739 42.1494453 C358.73980539 42.15747698 355.00907267 42.15930272 351.27831304 42.16004276 C347.24885063 42.16189999 343.21939808 42.1694506 339.18994141 42.17617798 C330.3861054 42.18973393 321.58227397 42.19578157 312.77842927 42.20018864 C307.27726473 42.20295534 301.77610194 42.20719344 296.27493858 42.21169281 C281.03175498 42.22388124 265.78857277 42.23418182 250.54538441 42.2375679 C249.57065636 42.23778747 248.59592831 42.23800703 247.59166304 42.23823325 C246.61466103 42.23845153 245.63765902 42.23866981 244.63105088 42.2388947 C242.65141348 42.23933816 240.67177608 42.23978472 238.69213867 42.24023438 C237.21919951 42.24056652 237.21919951 42.24056652 235.716504 42.24090537 C219.8084189 42.24485267 203.90037963 42.26230654 187.99231223 42.2855939 C171.64410497 42.30933166 155.29592068 42.32177083 138.94769591 42.32293582 C129.7750449 42.32385114 120.60245362 42.32956764 111.42981911 42.34775543 C103.61892793 42.36318907 95.80811497 42.36825762 87.99721143 42.36001733 C84.01583749 42.35612254 80.0346209 42.35698286 76.05326653 42.37107468 C72.40069593 42.383884 68.74839981 42.38255514 65.09582921 42.37048396 C63.1652288 42.36762551 61.23462332 42.37940912 59.30406123 42.39190602 C41.90543128 42.29424098 27.85302198 37.39331724 15.2109375 25.2421875 C14.48132813 24.50226562 13.75171875 23.76234375 13 23 C12.35289062 22.36320313 11.70578125 21.72640625 11.0390625 21.0703125 C5.89070777 15.65217499 0 7.68889231 0 0 Z " fill="#1937B8" transform="translate(295,586)"/>
<path d="M0 0 C0 0.33 0 0.66 0 1 C-0.68924561 1.03963867 -1.37849121 1.07927734 -2.08862305 1.12011719 C-22.61994444 2.36163366 -40.23801315 3.96317205 -55.15234375 19.765625 C-60.35859445 26.06155608 -64.88412529 33.05437258 -67 41 C-67.21527344 41.76441406 -67.43054688 42.52882813 -67.65234375 43.31640625 C-70.10033827 54.30838167 -68.68400926 65.85578593 -68 77 C-72.53466609 72.46533391 -72.07814641 61.27633305 -72.375 55 C-71.96243534 38.52491772 -63.5596345 24.06588646 -51.9375 12.875 C-37.89600453 0.91107274 -18.05274197 -4.3131792 0 0 Z " fill="#2849C5" transform="translate(363,508)"/>
<path d="M0 0 C0 0.33 0 0.66 0 1 C-5.03793408 1.82251985 -9.76819508 1.99567638 -14.875 1.875 C-38.59758488 1.78095606 -61.97764395 9.33113899 -80.23046875 24.65234375 C-82 26 -82 26 -85 27 C-85 27.66 -85 28.32 -85 29 C-86.61206755 30.33767307 -88.22528578 31.67397971 -89.84375 33.00390625 C-94.0461688 36.89418887 -97.47195816 41.50394668 -101 46 C-101.66 45.67 -102.32 45.34 -103 45 C-84.87501069 21.86266796 -62.0532706 3.94345401 -32 0 C-9.49147676 -1.99820563 -9.49147676 -1.99820563 0 0 Z " fill="#2B4DC8" transform="translate(518,407)"/>
<path d="M0 0 C-1.07636719 0.54527344 -2.15273438 1.09054687 -3.26171875 1.65234375 C-35.58648455 18.2424013 -56.4648026 41.85534532 -71 75 C-71.33 75 -71.66 75 -72 75 C-71.48596283 69.66772107 -70.13855217 65.40995624 -67.6875 60.625 C-67.33921143 59.94018555 -66.99092285 59.25537109 -66.63208008 58.54980469 C-57.43982273 41.0811457 -44.74129777 25.89240066 -29 14 C-28.21238281 13.39671875 -27.42476563 12.7934375 -26.61328125 12.171875 C-21.67415064 8.5471246 -16.48313966 5.45472352 -11.125 2.5 C-10.48208008 2.13704834 -9.83916016 1.77409668 -9.17675781 1.40014648 C-5.62788389 -0.49983586 -3.82339876 -1.25398314 0 0 Z " fill="#294AC3" transform="translate(455,396)"/>
<path d="M0 0 C6.4457428 0.82140439 10.21978386 4.88873539 15 9 C15.84304688 9.71929687 16.68609375 10.43859375 17.5546875 11.1796875 C34.48432216 25.99971036 49.21583967 46.90522607 55 69 C55.09765625 71.80859375 55.09765625 71.80859375 55 74 C52.3652678 71.3652678 51.62733485 68.38223091 50.4375 64.9375 C41.14670135 39.38925269 25.15604325 18.09635896 2.640625 2.86328125 C1.76921875 2.24839844 0.8978125 1.63351562 0 1 C0 0.67 0 0.34 0 0 Z " fill="#2A4BC5" transform="translate(573,406)"/>
<path d="M0 0 C0 0.66 0 1.32 0 2 C-2.45933991 1.88630789 -4.9167909 1.75957349 -7.375 1.625 C-8.07367187 1.5940625 -8.77234375 1.563125 -9.4921875 1.53125 C-14.7734375 1.2265625 -14.7734375 1.2265625 -17 -1 C-24.48061233 -3.42953559 -32.34825046 -3.31206899 -40.125 -3.25 C-41.31335449 -3.24540771 -42.50170898 -3.24081543 -43.72607422 -3.23608398 C-52.64577143 -3.14439751 -61.19863603 -2.40265046 -70 -1 C-71.83197787 -0.78006598 -73.66517654 -0.56977357 -75.5 -0.375 C-76.655 -0.25125 -77.81 -0.1275 -79 0 C-79 -0.66 -79 -1.32 -79 -2 C-53.78144476 -8.78961103 -24.76856046 -8.78373869 0 0 Z " fill="#2948BE" transform="translate(546,391)"/>
<path d="M0 0 C12.411074 2.74530669 23.45904396 9.77277285 33 18 C33.94488281 18.80050781 34.88976562 19.60101563 35.86328125 20.42578125 C47.58198722 30.5937581 55.69930711 42.39787107 63 56 C62.01 56 61.02 56 60 56 C58.48954879 53.7525214 57.17423092 51.55321722 55.875 49.1875 C51.86076593 42.19994264 47.39187551 36.01589003 42 30 C41.40058594 29.31808594 40.80117188 28.63617188 40.18359375 27.93359375 C30.98592272 18.10023055 19.77999242 10.80813525 7.45922852 5.54882812 C2.18485954 3.27728931 2.18485954 3.27728931 0 0 Z " fill="#294AC6" transform="translate(540,413)"/>
<path d="M0 0 C5.76362581 0.51175368 10.42203209 1.63047364 15.6875 4 C16.71254639 4.45161499 16.71254639 4.45161499 17.75830078 4.91235352 C23.85350386 7.71111355 29.15248559 11.28578023 34.5234375 15.27734375 C36.77084872 17.19034218 36.77084872 17.19034218 39 17 C40.4453125 18.43359375 40.4453125 18.43359375 42.125 20.4375 C44.68538617 23.46534256 47.30320698 26.40583982 50 29.3125 C54.22623693 34.07632088 58.30567599 39.20035341 61 45 C60.68359375 47.32421875 60.68359375 47.32421875 60 49 C59.45472656 48.10539063 58.90945313 47.21078125 58.34765625 46.2890625 C53.52919918 38.51088113 48.48875757 31.51156515 42 25 C41.33871094 24.31550781 40.67742188 23.63101562 39.99609375 22.92578125 C30.31535511 13.57569402 17.4357861 7.74197663 5 3 C3.33254143 2.33531651 1.66562978 1.66925305 0 1 C0 0.67 0 0.34 0 0 Z " fill="#2A4CC5" transform="translate(683,479)"/>
<path d="M0 0 C-2.48351681 2.48351681 -4.62299834 3.03274496 -7.9375 4.1875 C-26.2310145 11.09793554 -40.40853385 24.60827992 -48.74609375 42.21484375 C-50.20775892 45.46147076 -51.65183687 48.70449012 -53 52 C-53.33 52 -53.66 52 -54 52 C-53.71940956 37.68988752 -42.68859515 25.32885926 -32.875 15.875 C-24.45641692 8.42959574 -11.64640657 -0.85217609 0 0 Z " fill="#2B4BC2" transform="translate(329,490)"/>
<path d="M0 0 C2.40112414 2.94137707 4.14481471 6.07576781 5.90405273 9.43188477 C14.81928131 26.25543149 26.93381316 36.33488074 43.99609375 44.51953125 C47 46 47 46 50 48 C44.82358891 48.42741009 41.31302525 47.08915628 36.875 44.625 C36.22047852 44.26486816 35.56595703 43.90473633 34.89160156 43.53369141 C19.55623938 34.80737083 6.15941067 20.78894217 0 4 C0 2.68 0 1.36 0 0 Z " fill="#2D4CBE" transform="translate(277,596)"/>
<path d="M0 0 C3.48259167 2.32172778 4.04410152 3.81048172 5.75 7.5625 C10.27460252 17.15444558 10.27460252 17.15444558 18 24 C18 24.66 18 25.32 18 26 C18.57363281 26.28101563 19.14726562 26.56203125 19.73828125 26.8515625 C21.92966897 27.96428787 24.0543609 29.15495323 26.1875 30.375 C34.38996708 34.91111149 41.66538443 37.67396115 51 39 C51 39.33 51 39.66 51 40 C41.5120818 42.14820789 33.42882881 38.30654864 25.25390625 33.5390625 C20.76328643 30.47267739 16.8691183 26.80484723 13 23 C12.34773438 22.360625 11.69546875 21.72125 11.0234375 21.0625 C5.88877174 15.63377849 0 7.68853185 0 0 Z " fill="#2747C0" transform="translate(295,586)"/>
<path d="M0 0 C15.41831059 3.80578552 29.37356485 16.07910243 37.64501953 29.44799805 C40.9573087 35.17352646 43.09737823 40.45599216 44 47 C42.5 45.625 42.5 45.625 41 44 C41 43.34 41 42.68 41 42 C39.68 41.67 38.36 41.34 37 41 C37.99 41 38.98 41 40 41 C32.51861731 24.18889302 21.59403843 13.25029743 5.55786133 4.61254883 C1.09685219 2.19370437 1.09685219 2.19370437 0 0 Z " fill="#2848C4" transform="translate(686,502)"/>
<path d="M0 0 C0.79446533 -0.00942627 1.58893066 -0.01885254 2.4074707 -0.02856445 C6.30286433 -0.00641966 8.25142449 0.04261633 11.5625 2.25 C10.36496094 2.28738281 9.16742187 2.32476562 7.93359375 2.36328125 C-6.608434 2.90982726 -19.71753616 4.71901537 -33.21875 10.45703125 C-37.40682108 11.48880119 -39.43888783 10.71918705 -43.4375 9.25 C-43.7675 7.93 -44.0975 6.61 -44.4375 5.25 C-42.9525 6.24 -42.9525 6.24 -41.4375 7.25 C-36.10558848 7.70131053 -32.11521085 6.69824494 -27.125 4.875 C-17.85453756 1.64985193 -9.80092391 0.08988127 0 0 Z " fill="#3050C8" transform="translate(656.4375,495.75)"/>
<path d="M0 0 C0.66 0 1.32 0 2 0 C1.93071289 0.65701904 1.86142578 1.31403809 1.79003906 1.9909668 C1.10169499 8.94115973 0.77314409 15.82919397 0.75 22.8125 C0.74605225 23.85623779 0.74210449 24.89997559 0.73803711 25.9753418 C0.79200849 33.15353575 1.52177649 39.55201906 3.44140625 46.48828125 C4 49 4 49 3 52 C3 51.34 3 50.68 3 50 C2.34 50 1.68 50 1 50 C-3.80857288 32.88269024 -3.40216983 17.33761124 0 0 Z " fill="#2F50C3" transform="translate(273,543)"/>
<path d="M0 0 C0.495 0.99 0.495 0.99 1 2 C-4.02248673 15.60569167 -13.24021366 26.96011788 -26 34 C-26.87140625 34.495 -27.7428125 34.99 -28.640625 35.5 C-35.66671738 39.28011988 -35.66671738 39.28011988 -40 38 C-38.88882813 37.45472656 -37.77765625 36.90945313 -36.6328125 36.34765625 C-21.04781362 28.52184804 -9.44620283 19.0633756 -1.9453125 2.96875 C-1 1 -1 1 0 0 Z " fill="#2848C0" transform="translate(728,586)"/>
<path d="M0 0 C0.66 0 1.32 0 2 0 C3.83116118 11.90254768 2.79157253 23.1390052 1 35 C0.66537437 37.33314835 0.33166001 39.66642823 0 42 C-0.99 42 -1.98 42 -3 42 C-2.10104346 35.45045951 -2.10104346 35.45045951 -1.48461914 32.70239258 C-0.89826832 29.43271135 -0.78250347 26.26975929 -0.68359375 22.94921875 C-0.66281265 22.29041214 -0.64203156 21.63160553 -0.62062073 20.95283508 C-0.55564511 18.86448815 -0.49648425 16.77602388 -0.4375 14.6875 C-0.39426521 13.2649622 -0.3506494 11.84243594 -0.30664062 10.41992188 C-0.20001784 6.94673703 -0.09860652 3.47342274 0 0 Z " fill="#2E4FC4" transform="translate(751,551)"/>
<path d="M0 0 C0.85110352 -0.00064453 1.70220703 -0.00128906 2.57910156 -0.00195312 C7.38595157 0.03937188 12.03503862 0.20833474 16.75 1.1875 C17.245 2.1775 17.245 2.1775 17.75 3.1875 C4.88 3.5175 -7.99 3.8475 -21.25 4.1875 C-21.25 3.5275 -21.25 2.8675 -21.25 2.1875 C-14.17350582 0.36968498 -7.26658947 -0.00532546 0 0 Z " fill="#2C4EC9" transform="translate(351.25,485.8125)"/>
<path d="M0 0 C0.33 0.99 0.66 1.98 1 3 C-0.44140625 5.72265625 -0.44140625 5.72265625 -2.5625 9.0625 C-7.13179805 16.58503921 -9.77485096 24.41007253 -12.31884766 32.79541016 C-13.47955572 36.55211046 -14.74192611 40.27498591 -16 44 C-16.33 44 -16.66 44 -17 44 C-15.32414155 28.2116493 -9.97438451 12.54542151 0 0 Z " fill="#2546C1" transform="translate(414,454)"/>
<path d="M0 0 C3.9374352 -0.05893685 7.87475427 -0.09390669 11.8125 -0.125 C13.46282227 -0.15013672 13.46282227 -0.15013672 15.14648438 -0.17578125 C22.16599491 -0.21719429 29.23499951 -0.08365577 36 2 C36.495 2.99 36.495 2.99 37 4 C24.46 3.34 11.92 2.68 -1 2 C-0.67 1.34 -0.34 0.68 0 0 Z " fill="#2E50CA" transform="translate(645,475)"/>
<path d="M0 0 C0.703125 1.56640625 0.703125 1.56640625 1 4 C0.02709445 6.47130021 -0.97821584 8.62715115 -2.25 10.9375 C-2.60481445 11.59121582 -2.95962891 12.24493164 -3.32519531 12.91845703 C-6.0585811 17.75381882 -9.18771473 22.11817734 -12.75 26.375 C-13.20922852 26.92792725 -13.66845703 27.48085449 -14.14160156 28.05053711 C-16.53533812 30.78766606 -18.27112468 32.66893163 -22 33 C-21.195625 32.0925 -20.39125 31.185 -19.5625 30.25 C-11.43368916 20.68330988 -5.23093574 11.37013685 0 0 Z " fill="#2949BF" transform="translate(747,594)"/>
<path d="M0 0 C5.51040104 8.26560157 3.13607692 21.27305011 1.6328125 30.53125 C1 33 1 33 -1 35 C-0.96970703 34.43716309 -0.93941406 33.87432617 -0.90820312 33.29443359 C-0.31959584 22.185603 0.16831419 11.12743836 0 0 Z " fill="#2849C3" transform="translate(730,550)"/>
<path d="M0 0 C9.07519588 0.37734702 17.33318919 2.48533829 26 5 C26 5.66 26 6.32 26 7 C23.54066009 6.88630789 21.0832091 6.75957349 18.625 6.625 C17.92632813 6.5940625 17.22765625 6.563125 16.5078125 6.53125 C11.2265625 6.2265625 11.2265625 6.2265625 9 4 C8.21625 3.855625 7.4325 3.71125 6.625 3.5625 C3.69961448 2.93563167 2.30768431 1.84123748 0 0 Z " fill="#3E67ED" transform="translate(520,386)"/>
<path d="M0 0 C0 0.66 0 1.32 0 2 C-18.5807327 9.42096336 -18.5807327 9.42096336 -27 9 C-27.33 8.34 -27.66 7.68 -28 7 C-26.7934375 6.74605469 -25.586875 6.49210938 -24.34375 6.23046875 C-22.72909815 5.88313085 -21.11451863 5.5354566 -19.5 5.1875 C-18.31277344 4.9390332 -18.31277344 4.9390332 -17.1015625 4.68554688 C-11.69621867 3.51143531 -5.34805924 0 0 0 Z " fill="#2D4EC7" transform="translate(708,639)"/>
<path d="M0 0 C1.27230469 0.70576172 1.27230469 0.70576172 2.5703125 1.42578125 C10.95149262 5.92473321 18.53836035 8.49016389 28 10 C28 10.33 28 10.66 28 11 C17.48955188 13.3797241 8.85651261 8.3357755 0 3 C0 2.01 0 1.02 0 0 Z " fill="#2E4FC8" transform="translate(318,615)"/>
<path d="M0 0 C6.88578043 6.07568861 11.39025141 14.2496665 14 23 C13.67 23.99 13.34 24.98 13 26 C12.7525 25.195625 12.505 24.39125 12.25 23.5625 C11.27761141 20.828919 11.27761141 20.828919 8.875 20.1875 C7.946875 20.0946875 7.946875 20.0946875 7 20 C7.99 20 8.98 20 10 20 C9.09111244 18.10042499 8.17251969 16.20549214 7.25 14.3125 C6.73953125 13.25675781 6.2290625 12.20101562 5.703125 11.11328125 C4.09415658 7.94839184 4.09415658 7.94839184 1.796875 5.29296875 C0 3 0 3 0 0 Z " fill="#2D4EC9" transform="translate(716,523)"/>
<path d="M0 0 C5.86764706 0.49217485 10.13978471 2.25783768 15.3125 5 C16.02728516 5.36867188 16.74207031 5.73734375 17.47851562 6.1171875 C19.32324158 7.06997715 21.16205513 8.03419432 23 9 C23.66 9.33 24.32 9.66 25 10 C24.67 10.99 24.34 11.98 24 13 C23.02160156 12.46890625 22.04320312 11.9378125 21.03515625 11.390625 C14.12189446 7.65839846 7.2480752 4.05182114 0 1 C0 0.67 0 0.34 0 0 Z " fill="#2A4BC5" transform="translate(547,393)"/>
<path d="M0 0 C0.33 0.66 0.66 1.32 1 2 C0.30519531 2.67417969 -0.38960938 3.34835937 -1.10546875 4.04296875 C-4.36599342 7.30349342 -7.33270496 10.79684875 -10.3125 14.3125 C-10.86228516 14.95767578 -11.41207031 15.60285156 -11.97851562 16.26757812 C-13.32091173 17.84343442 -14.66072394 19.42149121 -16 21 C-16.66 20.67 -17.32 20.34 -18 20 C-12.36792123 12.87668525 -6.56367391 6.28436863 0 0 Z " fill="#2343BF" transform="translate(433,432)"/>
<path d="M0 0 C3.61293506 0.45161688 6.71895593 1.23555759 10.0625 2.625 C13.42742079 3.94142894 15.50441435 4.29836038 19 3 C19.99 2.34 20.98 1.68 22 1 C21.125 4.875 21.125 4.875 20 6 C12.5173095 6.92210933 6.71273569 5.19926126 0 2 C0 1.34 0 0.68 0 0 Z " fill="#2C4BC0" transform="translate(373,511)"/>
<path d="M0 0 C1.18819336 -0.00386719 1.18819336 -0.00386719 2.40039062 -0.0078125 C3.22861328 -0.00007813 4.05683594 0.00765625 4.91015625 0.015625 C5.73451172 0.00789063 6.55886719 0.00015625 7.40820312 -0.0078125 C8.20162109 -0.00523437 8.99503906 -0.00265625 9.8125 0 C10.90099243 0.00338379 10.90099243 0.00338379 12.01147461 0.00683594 C13.97265625 0.265625 13.97265625 0.265625 16.97265625 2.265625 C14.07716122 2.4610634 11.18156627 2.64723895 8.28515625 2.828125 C7.46853516 2.88419922 6.65191406 2.94027344 5.81054688 2.99804688 C1.67751502 3.24904071 -1.98558657 3.37690243 -6.02734375 2.265625 C-3.66833635 -0.0933824 -3.19772035 0.00995621 0 0 Z " fill="#203EBB" transform="translate(651.02734375,495.734375)"/>
<path d="M0 0 C7.11484687 0.3856646 13.35441866 1.39099399 20 4 C20 4.33 20 4.66 20 5 C13.2142064 4.45136137 6.64990964 3.45732062 0 2 C0 1.34 0 0.68 0 0 Z " fill="#2F4EC6" transform="translate(519,408)"/>
<path d="M0 0 C0 0.33 0 0.66 0 1 C-6.28812795 1.99170242 -12.15772381 1.96350147 -18.5 1.5625 C-19.4178125 1.51029297 -20.335625 1.45808594 -21.28125 1.40429688 C-23.52129261 1.2759611 -25.76072975 1.14107403 -28 1 C-28 0.67 -28 0.34 -28 0 C-8.78301887 -1.8490566 -8.78301887 -1.8490566 0 0 Z " fill="#1837B9" transform="translate(518,407)"/>
<path d="M0 0 C4.39605737 3.48652826 5.8277358 7.67705219 7 13 C7.21196866 15.72853275 7.1495823 18.25765791 7 21 C5.15381703 17.62223025 4.04736804 14.17986666 2.9375 10.5 C2.42509766 8.81390625 2.42509766 8.81390625 1.90234375 7.09375 C1.21472124 4.73618709 0.56782272 2.38836771 0 0 Z " fill="#2240B3" transform="translate(744,529)"/>
<path d="M0 0 C-2.92459337 2.46530388 -5.18209855 3.51048618 -8.9375 4.1875 C-9.77152344 4.34605469 -10.60554688 4.50460937 -11.46484375 4.66796875 C-14.00815129 5.00106758 -16.43817447 5.05957734 -19 5 C-19 4.34 -19 3.68 -19 3 C-16.96040523 2.49161436 -14.91820862 1.99366114 -12.875 1.5 C-11.73804688 1.2215625 -10.60109375 0.943125 -9.4296875 0.65625 C-6.18533302 0.03546235 -3.29185543 -0.12006768 0 0 Z " fill="#3153CB" transform="translate(486,386)"/>
<path d="M0 0 C3.78716158 1.50362259 7.55245187 3.05487001 11.3125 4.625 C12.38113281 5.07101562 13.44976562 5.51703125 14.55078125 5.9765625 C15.76314453 6.48316406 15.76314453 6.48316406 17 7 C17 7.33 17 7.66 17 8 C10.9641651 8.7941888 5.9312985 6.29681915 1 3 C0.67 2.01 0.34 1.02 0 0 Z " fill="#2846BA" transform="translate(310,636)"/>
<path d="M0 0 C2.36253009 2.36253009 3.037848 4.31227271 4.1875 7.4375 C4.55230469 8.40558594 4.91710937 9.37367188 5.29296875 10.37109375 C6 13 6 13 5 16 C1.67484299 10.86112099 -0.36461493 6.19845389 0 0 Z " fill="#2747BF" transform="translate(603,472)"/>
<path d="M0 0 C0.66 0.33 1.32 0.66 2 1 C0.75482035 2.13033298 -0.49636652 3.25405036 -1.75 4.375 C-2.44609375 5.00148438 -3.1421875 5.62796875 -3.859375 6.2734375 C-5.88181088 7.90467228 -7.56570641 9.09950928 -10 10 C-10.99 9.67 -11.98 9.34 -13 9 C-8.71 6.03 -4.42 3.06 0 0 Z " fill="#2D4CC3" transform="translate(723,628)"/>
<path d="M0 0 C1.72945653 0.14235457 3.45855654 0.28904382 5.1875 0.4375 C6.63189453 0.55931641 6.63189453 0.55931641 8.10546875 0.68359375 C10.78649602 0.97666151 13.3662986 1.42703754 16 2 C16 2.66 16 3.32 16 4 C14.08249714 3.91256669 12.16593335 3.8043811 10.25 3.6875 C9.18265625 3.62949219 8.1153125 3.57148438 7.015625 3.51171875 C3.8178932 2.96909846 2.37401309 2.14928855 0 0 Z " fill="#3454CA" transform="translate(520,386)"/>
<path d="M0 0 C3.34072178 1.38779449 4.90199421 2.81588196 6.8125 5.875 C7.25207031 6.55304687 7.69164062 7.23109375 8.14453125 7.9296875 C9.16843185 10.40762047 8.90457722 11.52489914 8 14 C6.66397562 11.85580015 5.33107996 9.70976582 4 7.5625 C3.6184375 6.95083984 3.236875 6.33917969 2.84375 5.70898438 C0 1.11328125 0 1.11328125 0 0 Z " fill="#2445BC" transform="translate(735,514)"/>
<path d="M0 0 C0.33 0.99 0.66 1.98 1 3 C-0.25942386 4.19959375 -1.53295286 5.38439443 -2.8125 6.5625 C-3.87404297 7.55443359 -3.87404297 7.55443359 -4.95703125 8.56640625 C-5.63121094 9.03949219 -6.30539062 9.51257813 -7 10 C-7.99 9.67 -8.98 9.34 -10 9 C-6.7 6.03 -3.4 3.06 0 0 Z " fill="#3252C8" transform="translate(715,606)"/>
<path d="M0 0 C3.49355371 3.02774655 4.90106142 5.51266745 6 10 C6.125 12.875 6.125 12.875 6 15 C3.61874536 12.61874536 2.99813759 10.66142433 1.875 7.5 C1.52179687 6.5203125 1.16859375 5.540625 0.8046875 4.53125 C0 2 0 2 0 0 Z " fill="#2646BD" transform="translate(622,465)"/>
<path d="M0 0 C1.5843317 0.08768248 3.16753567 0.19587329 4.75 0.3125 C6.07257812 0.39951172 6.07257812 0.39951172 7.421875 0.48828125 C10.32303774 1.0641181 11.79225607 2.07596148 14 4 C4.58997722 3.03644647 4.58997722 3.03644647 0 2 C0 1.34 0 0.68 0 0 Z " fill="#2A49C3" transform="translate(671,498)"/>
<path d="M0 0 C7.48291572 6.15034169 7.48291572 6.15034169 10 10 C6.7451198 9.41978222 5.06347592 8.47352859 2.75 6.125 C2.22921875 5.61195313 1.7084375 5.09890625 1.171875 4.5703125 C0 3 0 3 0 0 Z " fill="#3456CD" transform="translate(592,419)"/>
<path d="M0 0 C3.21524305 1.40844718 5.32183868 3.10344786 7.75 5.625 C8.67039062 6.57246094 8.67039062 6.57246094 9.609375 7.5390625 C10.29773438 8.26222656 10.29773438 8.26222656 11 9 C10.67 9.99 10.34 10.98 10 12 C9.52949219 11.44570313 9.05898438 10.89140625 8.57421875 10.3203125 C7.95160156 9.59585938 7.32898438 8.87140625 6.6875 8.125 C6.07261719 7.40570312 5.45773437 6.68640625 4.82421875 5.9453125 C2.9587676 3.80820669 2.9587676 3.80820669 0 2 C0 1.34 0 0.68 0 0 Z " fill="#2543B9" transform="translate(705,513)"/>
<path d="M0 0 C-3.09423168 3.09423168 -6.5523812 3.93706005 -10.875 4.125 C-11.57625 4.08375 -12.2775 4.0425 -13 4 C-8.61350163 0.52105302 -5.57581513 -0.123907 0 0 Z " fill="#2D4EC7" transform="translate(329,490)"/>
<path d="M0 0 C0 0.33 0 0.66 0 1 C-6.435 1.495 -6.435 1.495 -13 2 C-13.33 1.34 -13.66 0.68 -14 0 C-9.20699867 -1.39151652 -4.84864218 -0.68662689 0 0 Z " fill="#3657CD" transform="translate(495,408)"/>
<path d="M0 0 C1 3 1 3 0.07421875 5.04296875 C-0.61220703 6.10451172 -0.61220703 6.10451172 -1.3125 7.1875 C-1.76238281 7.90292969 -2.21226562 8.61835937 -2.67578125 9.35546875 C-3.11277344 9.89816406 -3.54976563 10.44085937 -4 11 C-4.66 11 -5.32 11 -6 11 C-4.74194623 6.49197399 -3.09592835 3.5087188 0 0 Z " fill="#2647C1" transform="translate(303,530)"/>
<path d="M0 0 C2.67927341 4.01891012 2.15601248 6.24161923 2 11 C0.35365714 8.03658286 -0.55681086 5.36823744 -1 2 C-0.67 1.34 -0.34 0.68 0 0 Z " fill="#2848C3" transform="translate(749,539)"/>
<path d="M0 0 C-3.53411321 2.12046792 -6.94393835 2.53199289 -11 3 C-8.21756596 -1.17365106 -4.53441502 -0.22300402 0 0 Z " fill="#2546C6" transform="translate(643,477)"/>
<path d="M0 0 C-1.15173355 2.46800047 -2.04783565 4.04783565 -4 6 C-4.99 5.67 -5.98 5.34 -7 5 C-2.25 0 -2.25 0 0 0 Z " fill="#3354CA" transform="translate(417,419)"/>
<path d="M0 0 C2.97 0.33 5.94 0.66 9 1 C9 1.66 9 2.32 9 3 C2.25 2.25 2.25 2.25 0 0 Z " fill="#2A49C1" transform="translate(537,390)"/>
<path d="" fill="#4D70EC" transform="translate(0,0)"/>
<path d="" fill="#4B6FE9" transform="translate(0,0)"/>
<path d="M0 0 C3 1 3 1 3 1 Z " fill="#4E73EB" transform="translate(340,511)"/>
<path d="M0 0 C2 1 2 1 2 1 Z " fill="#4F70E1" transform="translate(692,647)"/>
<path d="M0 0 C2 1 2 1 2 1 Z " fill="#4F71E1" transform="translate(322,645)"/>
<path d="M0 0 C2 1 2 1 2 1 Z " fill="#5476E7" transform="translate(419,624)"/>
<path d="M0 0 C2 1 2 1 2 1 Z " fill="#4D70ED" transform="translate(675,502)"/>
<path d="M0 0 C2 1 2 1 2 1 Z " fill="#4D70EB" transform="translate(665,500)"/>
<path d="M0 0 C2 1 2 1 2 1 Z " fill="#4B6FEF" transform="translate(468,415)"/>
<path d="M0 0 C2 1 2 1 2 1 Z " fill="#4E71EE" transform="translate(529,413)"/>
<path d="M0 0 C2 1 2 1 2 1 Z " fill="#4D6FE3" transform="translate(436,400)"/>
<path d="" fill="#494A4A" transform="translate(0,0)"/>
<path d="" fill="#5775DF" transform="translate(0,0)"/>
<path d="" fill="#5371DB" transform="translate(0,0)"/>
<path d="" fill="#516FE0" transform="translate(0,0)"/>
<path d="" fill="#516EE1" transform="translate(0,0)"/>
<path d="" fill="#5170DE" transform="translate(0,0)"/>
<path d="" fill="#4F72E7" transform="translate(0,0)"/>
<path d="" fill="#5174E5" transform="translate(0,0)"/>
<path d="" fill="#5374E5" transform="translate(0,0)"/>
<path d="" fill="#5274E7" transform="translate(0,0)"/>
<path d="" fill="#5474E5" transform="translate(0,0)"/>
<path d="" fill="#5175E7" transform="translate(0,0)"/>
<path d="" fill="#5274E6" transform="translate(0,0)"/>
<path d="" fill="#5173E4" transform="translate(0,0)"/>
<path d="" fill="#5576E6" transform="translate(0,0)"/>
<path d="" fill="#5376E9" transform="translate(0,0)"/>
<path d="" fill="#5476E7" transform="translate(0,0)"/>
<path d="" fill="#5073E5" transform="translate(0,0)"/>
<path d="" fill="#5474E7" transform="translate(0,0)"/>
<path d="" fill="#5277E8" transform="translate(0,0)"/>
<path d="" fill="#5275E7" transform="translate(0,0)"/>
<path d="" fill="#5675E7" transform="translate(0,0)"/>
<path d="" fill="#5275E6" transform="translate(0,0)"/>
<path d="" fill="#5073E5" transform="translate(0,0)"/>
<path d="" fill="#4E71E5" transform="translate(0,0)"/>
<path d="" fill="#5075E5" transform="translate(0,0)"/>
<path d="" fill="#5476E7" transform="translate(0,0)"/>
<path d="" fill="#5476E7" transform="translate(0,0)"/>
<path d="" fill="#5375E8" transform="translate(0,0)"/>
<path d="" fill="#5376E7" transform="translate(0,0)"/>
<path d="" fill="#5276E8" transform="translate(0,0)"/>
<path d="" fill="#5376E9" transform="translate(0,0)"/>
<path d="" fill="#5076E7" transform="translate(0,0)"/>
<path d="" fill="#4B6FE5" transform="translate(0,0)"/>
<path d="" fill="#4A6EDF" transform="translate(0,0)"/>
<path d="" fill="#4F6FDF" transform="translate(0,0)"/>
<path d="" fill="#4C72EC" transform="translate(0,0)"/>
<path d="" fill="#4D6FDE" transform="translate(0,0)"/>
<path d="" fill="#4E70DC" transform="translate(0,0)"/>
<path d="" fill="#4E71DC" transform="translate(0,0)"/>
<path d="" fill="#4D6FE4" transform="translate(0,0)"/>
<path d="" fill="#4E6BDF" transform="translate(0,0)"/>
<path d="" fill="#4B6EEA" transform="translate(0,0)"/>
<path d="" fill="#4D6FE2" transform="translate(0,0)"/>
<path d="" fill="#4B71E9" transform="translate(0,0)"/>
<path d="" fill="#4C70E6" transform="translate(0,0)"/>
<path d="" fill="#4C71EB" transform="translate(0,0)"/>
<path d="" fill="#4C6FEA" transform="translate(0,0)"/>
<path d="" fill="#4E71EA" transform="translate(0,0)"/>
<path d="" fill="#496DED" transform="translate(0,0)"/>
<path d="" fill="#4E71ED" transform="translate(0,0)"/>
<path d="" fill="#4B70EB" transform="translate(0,0)"/>
<path d="" fill="#4A6CE5" transform="translate(0,0)"/>
<path d="" fill="#4D70EE" transform="translate(0,0)"/>
<path d="" fill="#5072E5" transform="translate(0,0)"/>
<path d="" fill="#5071E3" transform="translate(0,0)"/>
<path d="" fill="#4A6EEB" transform="translate(0,0)"/>
<path d="" fill="#4C70EE" transform="translate(0,0)"/>
<path d="" fill="#4E6FE8" transform="translate(0,0)"/>
<path d="" fill="#5073E5" transform="translate(0,0)"/>
<path d="" fill="#4D6EF0" transform="translate(0,0)"/>
<path d="" fill="#5371DE" transform="translate(0,0)"/>
<path d="" fill="#5475E7" transform="translate(0,0)"/>
<path d="" fill="#4D6FEB" transform="translate(0,0)"/>
<path d="" fill="#5071EA" transform="translate(0,0)"/>
<path d="" fill="#4F71E7" transform="translate(0,0)"/>
<path d="" fill="#5174E0" transform="translate(0,0)"/>
<path d="" fill="#4B6FEB" transform="translate(0,0)"/>
<path d="" fill="#4E70EA" transform="translate(0,0)"/>
<path d="" fill="#5171EB" transform="translate(0,0)"/>
<path d="" fill="#4C70EC" transform="translate(0,0)"/>
<path d="" fill="#4C6DE9" transform="translate(0,0)"/>
<path d="" fill="#4E70EE" transform="translate(0,0)"/>
<path d="" fill="#4E71EB" transform="translate(0,0)"/>
<path d="" fill="#4E72E6" transform="translate(0,0)"/>
<path d="" fill="#4F72EA" transform="translate(0,0)"/>
<path d="" fill="#4D73DF" transform="translate(0,0)"/>
<path d="" fill="#5074E4" transform="translate(0,0)"/>
<path d="" fill="#5071E6" transform="translate(0,0)"/>
<path d="" fill="#4E70DD" transform="translate(0,0)"/>
<path d="" fill="#4E6FE7" transform="translate(0,0)"/>
<path d="" fill="#4D6EE3" transform="translate(0,0)"/>
<path d="" fill="#4F75E8" transform="translate(0,0)"/>
<path d="" fill="#4F71EB" transform="translate(0,0)"/>
<path d="" fill="#486FE6" transform="translate(0,0)"/>
<path d="" fill="#4C71E4" transform="translate(0,0)"/>
<path d="" fill="#486EE6" transform="translate(0,0)"/>
<path d="" fill="#5072E2" transform="translate(0,0)"/>
<path d="" fill="#4F70E5" transform="translate(0,0)"/>
<path d="" fill="#4F71E3" transform="translate(0,0)"/>
<path d="" fill="#5472E1" transform="translate(0,0)"/>
<path d="" fill="#5373E3" transform="translate(0,0)"/>
<path d="" fill="#4F72E5" transform="translate(0,0)"/>
<path d="" fill="#4C73E9" transform="translate(0,0)"/>
<path d="" fill="#4E71E7" transform="translate(0,0)"/>
</svg>
